<svg width="480" height="480" viewBox="0 0 480 480" fill="none" xmlns="http://www.w3.org/2000/svg">
<g clip-path="url(#clip0_14_42)">
<path d="M320 260L459.28 341.24L399.82 358.24L442.32 431.86L407.68 451.86L365.18 378.26L320.72 421.26L320 260ZM280 120H320V160H420C425.304 160 430.391 162.107 434.142 165.858C437.893 169.609 440 174.696 440 180V260H400V200H200V400H280V440H180C174.696 440 169.609 437.893 165.858 434.142C162.107 430.391 160 425.304 160 420V320H120V280H160V180C160 174.696 162.107 169.609 165.858 165.858C169.609 162.107 174.696 160 180 160H280V120ZM80 280V320H40V280H80ZM80 200V240H40V200H80ZM80 120V160H40V120H80ZM80 40V80H40V40H80ZM160 40V80H120V40H160ZM240 40V80H200V40H240ZM320 40V80H280V40H320Z" fill="white"/>
</g>
<defs>
<clipPath id="clip0_14_42">
<rect width="480" height="480" fill="white"/>
</clipPath>
</defs>
</svg>
