<svg width="400" height="400" viewBox="0 0 400 400" fill="none" xmlns="http://www.w3.org/2000/svg">
<g clip-path="url(#clip0_27_13)">
<path d="M266.667 216.667L382.733 284.367L333.183 298.533L368.6 359.883L339.733 376.55L304.317 315.217L267.267 351.05L266.667 216.667ZM233.333 100H266.667V133.333H350C354.42 133.333 358.66 135.089 361.785 138.215C364.911 141.34 366.667 145.58 366.667 150V216.667H333.333V166.667H166.667V333.333H233.333V366.667H150C145.58 366.667 141.341 364.911 138.215 361.785C135.089 358.659 133.333 354.42 133.333 350V266.667H100V233.333H133.333V150C133.333 145.58 135.089 141.34 138.215 138.215C141.341 135.089 145.58 133.333 150 133.333H233.333V100ZM66.6667 233.333V266.667H33.3334V233.333H66.6667ZM66.6667 166.667V200H33.3334V166.667H66.6667ZM66.6667 100V133.333H33.3334V100H66.6667ZM66.6667 33.3333V66.6666H33.3334V33.3333H66.6667ZM133.333 33.3333V66.6666H100V33.3333H133.333ZM200 33.3333V66.6666H166.667V33.3333H200ZM266.667 33.3333V66.6666H233.333V33.3333H266.667Z" fill="white"/>
</g>
<defs>
<clipPath id="clip0_27_13">
<rect width="400" height="400" fill="white"/>
</clipPath>
</defs>
</svg>
